<svg width="716" height="716" viewBox="0 0 716 716" fill="none" xmlns="http://www.w3.org/2000/svg">
<circle cx="272.305" cy="236.481" r="131.512" fill="#DAB44F"/>
<path d="M339.934 696.824L338.01 493.563C333.124 355.721 145.094 369.702 107.455 377.448C107.455 377.448 160.349 205.496 350.988 211.305C541.627 217.113 568.431 377.448 568.431 377.448C528.429 372.839 368.005 356.115 363.198 493.563L362.183 696.824L339.934 696.824Z" fill="#394555"/>
<path d="M509.547 659.638L510.547 569.272C508.24 504.199 421.837 510.799 404.068 514.456C404.068 514.456 429.039 433.279 519.037 436.022C609.036 438.764 621.689 514.456 621.689 514.456C602.805 512.28 528.434 504.384 526.165 569.272L524.777 659.638L509.547 659.638Z" fill="#D36841"/>
<circle cx="358.448" cy="358.281" r="345.85" stroke="#DAB44F" stroke-width="23.3611"/>
</svg>
